<svg width="53" height="40" viewBox="0 0 53 40" fill="none" xmlns="http://www.w3.org/2000/svg">
<path d="M31.8 22.5V17.5C31.8 16.1193 32.9864 15 34.45 15C35.9136 15 37.1 16.1193 37.1 17.5V22.5C37.1 23.8807 35.9136 25 34.45 25C32.9864 25 31.8 23.8807 31.8 22.5ZM31.8 7.5V5H7.95C7.24718 5 6.57334 5.26358 6.07637 5.73242C5.5794 6.20126 5.3 6.83696 5.3 7.5V12.937C6.4064 13.3065 7.42516 13.8994 8.2709 14.6973C9.76181 16.1038 10.6 18.0109 10.6 20C10.6 21.9891 9.76181 23.8962 8.2709 25.3027C7.42537 26.1004 6.40608 26.6911 5.3 27.0605V32.5C5.3 33.163 5.5794 33.7987 6.07637 34.2676C6.57334 34.7364 7.24718 35 7.95 35H31.8V32.5C31.8 31.1193 32.9864 30 34.45 30C35.9136 30 37.1 31.1193 37.1 32.5V35H45.05C45.7528 35 46.4267 34.7364 46.9236 34.2676C47.4206 33.7987 47.7 33.163 47.7 32.5V27.0605C46.5939 26.6911 45.5746 26.1004 44.7291 25.3027C43.2382 23.8962 42.4 21.9891 42.4 20C42.4 18.0109 43.2382 16.1038 44.7291 14.6973C45.5748 13.8994 46.5936 13.3065 47.7 12.937V7.5C47.7 6.83696 47.4206 6.20126 46.9236 5.73242C46.4267 5.26358 45.7528 5 45.05 5H37.1V7.5C37.1 8.88071 35.9136 10 34.45 10C32.9864 10 31.8 8.88071 31.8 7.5ZM53 15C53 16.3807 51.8136 17.5 50.35 17.5C49.6472 17.5 48.9733 17.7636 48.4764 18.2324C47.9794 18.7013 47.7 19.337 47.7 20C47.7 20.663 47.9794 21.2987 48.4764 21.7676C48.9733 22.2364 49.6472 22.5 50.35 22.5C51.8136 22.5 53 23.6193 53 25V32.5C53 34.4891 52.1618 36.3962 50.6709 37.8027C49.18 39.2093 47.1585 40 45.05 40H7.95C5.84153 40 3.82001 39.2093 2.3291 37.8027C0.838188 36.3962 0 34.4891 0 32.5V25C0 23.6193 1.18645 22.5 2.65 22.5C3.35282 22.5 4.02666 22.2364 4.52363 21.7676C5.0206 21.2987 5.3 20.663 5.3 20C5.3 19.337 5.0206 18.7013 4.52363 18.2324C4.02666 17.7636 3.35282 17.5 2.65 17.5C1.18645 17.5 0 16.3807 0 15V7.5C0 5.51088 0.838187 3.60379 2.3291 2.19727C3.82002 0.790743 5.84153 0 7.95 0H45.05C47.1585 0 49.18 0.790743 50.6709 2.19727C52.1618 3.60379 53 5.51088 53 7.5V15Z" fill="#FF008C"/>
</svg>
