<svg width="79" height="91" viewBox="0 0 79 91" fill="none" xmlns="http://www.w3.org/2000/svg">
<path d="M62.3909 14.1433C58.9633 10.2289 57.0741 5.20292 57.0746 0L41.5772 0V62.1903C41.4602 65.5566 40.0401 68.7457 37.6166 71.085C35.1932 73.4243 31.9558 74.7307 28.5875 74.7287C21.4657 74.7287 15.5476 68.9109 15.5476 61.6888C15.5476 53.0624 23.8731 46.5926 32.4493 49.2507V33.4022C15.1463 31.0951 0 44.5363 0 61.6888C0 78.3899 13.8424 90.2762 28.5373 90.2762C44.2855 90.2762 57.0746 77.4871 57.0746 61.6888V30.1422C63.3589 34.6553 70.9038 37.0767 78.6406 37.0634V21.566C78.6406 21.566 69.2118 22.0174 62.3909 14.1433Z" fill="white"/>
</svg>
